<mxfile host="65bd71144e">
    <diagram id="9M87wdR6Hggzw5TvJkmN" name="Page-1">
        <mxGraphModel dx="1474" dy="779" grid="0" gridSize="10" guides="1" tooltips="1" connect="1" arrows="1" fold="1" page="0" pageScale="1" pageWidth="1000" pageHeight="700" math="0" shadow="0">
            <root>
                <mxCell id="0"/>
                <mxCell id="1" parent="0"/>
                <mxCell id="47" value="Alternative" style="shape=umlFrame;tabWidth=110;tabHeight=30;tabPosition=left;html=1;boundedLbl=1;labelInHeader=1;width=140;height=30;movable=1;resizable=1;rotatable=1;deletable=1;editable=1;connectable=1;" parent="1" vertex="1">
                    <mxGeometry x="53" y="376" width="694" height="134" as="geometry"/>
                </mxCell>
                <mxCell id="48" value="if" style="text" parent="47" vertex="1">
                    <mxGeometry width="100" height="20" relative="1" as="geometry">
                        <mxPoint x="20" y="40" as="offset"/>
                    </mxGeometry>
                </mxCell>
                <mxCell id="49" value="else" style="line;strokeWidth=1;dashed=1;labelPosition=center;verticalLabelPosition=bottom;align=left;verticalAlign=top;spacingLeft=20;spacingTop=15;" parent="47" vertex="1">
                    <mxGeometry y="67" width="694" height="5.359999999999999" as="geometry"/>
                </mxCell>
                <mxCell id="50" value="" style="edgeStyle=none;orthogonalLoop=1;jettySize=auto;html=1;dashed=1;" parent="47" edge="1">
                    <mxGeometry width="80" relative="1" as="geometry">
                        <mxPoint x="642.5" y="24.995260115606847" as="sourcePoint"/>
                        <mxPoint x="414.5" y="24.995260115606847" as="targetPoint"/>
                        <Array as="points"/>
                    </mxGeometry>
                </mxCell>
                <mxCell id="51" value="Donner la confirmation" style="text;html=1;align=center;verticalAlign=middle;resizable=0;points=[];autosize=1;strokeColor=none;fillColor=none;" parent="47" vertex="1">
                    <mxGeometry x="459" y="2.9956647398843925" width="139" height="26" as="geometry"/>
                </mxCell>
                <mxCell id="52" value="" style="edgeStyle=none;orthogonalLoop=1;jettySize=auto;html=1;dashed=1;" parent="47" edge="1">
                    <mxGeometry width="80" relative="1" as="geometry">
                        <mxPoint x="642.5" y="97.64624277456646" as="sourcePoint"/>
                        <mxPoint x="414.5" y="97.64624277456646" as="targetPoint"/>
                        <Array as="points"/>
                    </mxGeometry>
                </mxCell>
                <mxCell id="53" value="Donner une erreur" style="text;html=1;align=center;verticalAlign=middle;resizable=0;points=[];autosize=1;strokeColor=none;fillColor=none;" parent="47" vertex="1">
                    <mxGeometry x="470.5" y="72.35664739884393" width="116" height="26" as="geometry"/>
                </mxCell>
                <mxCell id="54" value="" style="edgeStyle=none;orthogonalLoop=1;jettySize=auto;html=1;dashed=1;" parent="47" edge="1">
                    <mxGeometry width="80" relative="1" as="geometry">
                        <mxPoint x="407.5000000000002" y="121.99976878612716" as="sourcePoint"/>
                        <mxPoint x="179.5" y="121.99976878612716" as="targetPoint"/>
                        <Array as="points"/>
                    </mxGeometry>
                </mxCell>
                <mxCell id="55" value="Retourner à la page de création &lt;br&gt;avec l'erreur spécifiée" style="text;html=1;align=center;verticalAlign=middle;resizable=0;points=[];autosize=1;strokeColor=none;fillColor=none;" parent="47" vertex="1">
                    <mxGeometry x="200.5" y="81.00017341040461" width="187" height="41" as="geometry"/>
                </mxCell>
                <mxCell id="99" value="" style="edgeStyle=none;orthogonalLoop=1;jettySize=auto;html=1;dashed=1;" parent="47" edge="1">
                    <mxGeometry width="80" relative="1" as="geometry">
                        <mxPoint x="408.0000000000002" y="54.33526011560684" as="sourcePoint"/>
                        <mxPoint x="180" y="54.33526011560684" as="targetPoint"/>
                        <Array as="points"/>
                    </mxGeometry>
                </mxCell>
                <mxCell id="100" value="Afficher la confirmation" style="text;html=1;align=center;verticalAlign=middle;resizable=0;points=[];autosize=1;strokeColor=none;fillColor=none;" parent="47" vertex="1">
                    <mxGeometry x="226" y="30.995664739884376" width="140" height="26" as="geometry"/>
                </mxCell>
                <mxCell id="11" style="edgeStyle=none;html=1;endArrow=none;endFill=0;dashed=1;startArrow=none;" parent="1" source="13" edge="1">
                    <mxGeometry relative="1" as="geometry">
                        <mxPoint x="232" y="638" as="targetPoint"/>
                        <mxPoint x="232" y="404" as="sourcePoint"/>
                    </mxGeometry>
                </mxCell>
                <mxCell id="13" value="Operateur" style="shape=umlActor;verticalLabelPosition=bottom;verticalAlign=top;html=1;" parent="1" vertex="1">
                    <mxGeometry x="218" y="62" width="30" height="60" as="geometry"/>
                </mxCell>
                <mxCell id="14" value="Gestion d'articles" style="html=1;" parent="1" vertex="1">
                    <mxGeometry x="382" y="62" width="165" height="50" as="geometry"/>
                </mxCell>
                <mxCell id="15" value="" style="edgeStyle=none;html=1;endArrow=none;endFill=0;dashed=1;dashPattern=12 12;startArrow=none;" parent="1" source="101" edge="1">
                    <mxGeometry relative="1" as="geometry">
                        <mxPoint x="462" y="638" as="targetPoint"/>
                        <mxPoint x="462" y="389" as="sourcePoint"/>
                    </mxGeometry>
                </mxCell>
                <mxCell id="17" value="BD" style="html=1;" parent="1" vertex="1">
                    <mxGeometry x="612" y="62" width="170" height="50" as="geometry"/>
                </mxCell>
                <mxCell id="18" value="" style="edgeStyle=none;html=1;endArrow=none;endFill=0;dashed=1;dashPattern=12 12;startArrow=none;" parent="1" source="103" edge="1">
                    <mxGeometry relative="1" as="geometry">
                        <mxPoint x="695" y="638" as="targetPoint"/>
                        <mxPoint x="695" y="387" as="sourcePoint"/>
                        <Array as="points"/>
                    </mxGeometry>
                </mxCell>
                <mxCell id="36" value="" style="edgeStyle=none;orthogonalLoop=1;jettySize=auto;html=1;" parent="1" edge="1">
                    <mxGeometry width="80" relative="1" as="geometry">
                        <mxPoint x="233" y="148" as="sourcePoint"/>
                        <mxPoint x="462" y="148" as="targetPoint"/>
                        <Array as="points"/>
                    </mxGeometry>
                </mxCell>
                <mxCell id="37" value="Demander la page creation" style="text;html=1;align=center;verticalAlign=middle;resizable=0;points=[];autosize=1;strokeColor=none;fillColor=none;" parent="1" vertex="1">
                    <mxGeometry x="268" y="127" width="163" height="26" as="geometry"/>
                </mxCell>
                <mxCell id="38" value="" style="edgeStyle=none;orthogonalLoop=1;jettySize=auto;html=1;dashed=1;" parent="1" edge="1">
                    <mxGeometry width="80" relative="1" as="geometry">
                        <mxPoint x="461.5" y="192" as="sourcePoint"/>
                        <mxPoint x="233.5" y="192" as="targetPoint"/>
                        <Array as="points"/>
                    </mxGeometry>
                </mxCell>
                <mxCell id="39" value="Affichage du page creation" style="text;html=1;align=center;verticalAlign=middle;resizable=0;points=[];autosize=1;strokeColor=none;fillColor=none;" parent="1" vertex="1">
                    <mxGeometry x="267.5" y="170" width="160" height="26" as="geometry"/>
                </mxCell>
                <mxCell id="40" value="" style="edgeStyle=none;orthogonalLoop=1;jettySize=auto;html=1;" parent="1" edge="1">
                    <mxGeometry width="80" relative="1" as="geometry">
                        <mxPoint x="235" y="235" as="sourcePoint"/>
                        <mxPoint x="464" y="235" as="targetPoint"/>
                        <Array as="points"/>
                    </mxGeometry>
                </mxCell>
                <mxCell id="41" value="Remplissez les champs" style="text;html=1;align=center;verticalAlign=middle;resizable=0;points=[];autosize=1;strokeColor=none;fillColor=none;" parent="1" vertex="1">
                    <mxGeometry x="275.5" y="212" width="144" height="26" as="geometry"/>
                </mxCell>
                <mxCell id="42" value="" style="edgeStyle=none;orthogonalLoop=1;jettySize=auto;html=1;" parent="1" edge="1">
                    <mxGeometry width="80" relative="1" as="geometry">
                        <mxPoint x="235" y="290" as="sourcePoint"/>
                        <mxPoint x="464" y="290" as="targetPoint"/>
                        <Array as="points"/>
                    </mxGeometry>
                </mxCell>
                <mxCell id="43" value="Soumettre les informations" style="text;html=1;align=center;verticalAlign=middle;resizable=0;points=[];autosize=1;strokeColor=none;fillColor=none;" parent="1" vertex="1">
                    <mxGeometry x="269.5" y="265" width="161" height="26" as="geometry"/>
                </mxCell>
                <mxCell id="44" value="" style="edgeStyle=none;orthogonalLoop=1;jettySize=auto;html=1;" parent="1" edge="1">
                    <mxGeometry width="80" relative="1" as="geometry">
                        <mxPoint x="466" y="317" as="sourcePoint"/>
                        <mxPoint x="695" y="317" as="targetPoint"/>
                        <Array as="points"/>
                    </mxGeometry>
                </mxCell>
                <mxCell id="45" value="Voir si les informations est correcte" style="text;html=1;align=center;verticalAlign=middle;resizable=0;points=[];autosize=1;strokeColor=none;fillColor=none;" parent="1" vertex="1">
                    <mxGeometry x="484" y="291" width="204" height="26" as="geometry"/>
                </mxCell>
                <mxCell id="97" value="" style="edgeStyle=none;orthogonalLoop=1;jettySize=auto;html=1;dashed=1;" parent="1" edge="1">
                    <mxGeometry width="80" relative="1" as="geometry">
                        <mxPoint x="461.50000000000045" y="556.9997687861271" as="sourcePoint"/>
                        <mxPoint x="233.5" y="556.9997687861271" as="targetPoint"/>
                        <Array as="points"/>
                    </mxGeometry>
                </mxCell>
                <mxCell id="98" value="Retourner à la page d'articles" style="text;html=1;align=center;verticalAlign=middle;resizable=0;points=[];autosize=1;strokeColor=none;fillColor=none;" parent="1" vertex="1">
                    <mxGeometry x="261" y="529.0001734104046" width="174" height="26" as="geometry"/>
                </mxCell>
                <mxCell id="102" value="" style="edgeStyle=none;html=1;endArrow=none;endFill=0;dashed=1;dashPattern=12 12;startArrow=none;" parent="1" source="14" target="101" edge="1">
                    <mxGeometry relative="1" as="geometry">
                        <mxPoint x="462" y="638" as="targetPoint"/>
                        <mxPoint x="464.38656987295826" y="112" as="sourcePoint"/>
                    </mxGeometry>
                </mxCell>
                <mxCell id="101" value="" style="html=1;points=[];perimeter=orthogonalPerimeter;fillColor=strokeColor;" parent="1" vertex="1">
                    <mxGeometry x="462" y="143" width="5" height="416" as="geometry"/>
                </mxCell>
                <mxCell id="104" value="" style="edgeStyle=none;html=1;endArrow=none;endFill=0;dashed=1;dashPattern=12 12;startArrow=none;" parent="1" source="17" target="103" edge="1">
                    <mxGeometry relative="1" as="geometry">
                        <mxPoint x="695" y="638" as="targetPoint"/>
                        <mxPoint x="696.9092558983668" y="112" as="sourcePoint"/>
                        <Array as="points"/>
                    </mxGeometry>
                </mxCell>
                <mxCell id="103" value="" style="html=1;points=[];perimeter=orthogonalPerimeter;fillColor=strokeColor;" parent="1" vertex="1">
                    <mxGeometry x="694.5" y="315" width="5" height="162" as="geometry"/>
                </mxCell>
                <mxCell id="106" value="" style="edgeStyle=none;orthogonalLoop=1;jettySize=auto;html=1;" parent="1" edge="1">
                    <mxGeometry width="80" relative="1" as="geometry">
                        <mxPoint x="694.5" y="329.9999999999998" as="sourcePoint"/>
                        <mxPoint x="699.5" y="362" as="targetPoint"/>
                        <Array as="points">
                            <mxPoint x="750" y="330"/>
                            <mxPoint x="750" y="362"/>
                        </Array>
                    </mxGeometry>
                </mxCell>
                <mxCell id="107" value="Faire une vérification" style="text;html=1;align=center;verticalAlign=middle;resizable=0;points=[];autosize=1;strokeColor=none;fillColor=none;" parent="1" vertex="1">
                    <mxGeometry x="746" y="337" width="129" height="26" as="geometry"/>
                </mxCell>
            </root>
        </mxGraphModel>
    </diagram>
</mxfile>